<svg xmlns="http://www.w3.org/2000/svg" height="27" width="auto" viewBox="0 0 170 27">
  <title>CV Builder Logo</title>
  <!-- Document icon in app primary color -->
  <path d="M14.23,10.8H9.09a1,1,0,0,0,0,1.93h5a.89.89,0,0,0,1.07-1A1,1,0,0,0,14.23,10.8ZM5.77,22.26V4.7H16.05A5.6,5.6,0,0,1,18,5,4.94,4.94,0,0,1,20.87,7.8a6.36,6.36,0,0,1-.11,5.57,5.58,5.58,0,0,1-4.93,2.89l6,6ZM21.94,1.7H5.66A3.68,3.68,0,0,0,2,5.34V21.62a3.68,3.68,0,0,0,3.64,3.64H22a3.68,3.68,0,0,0,3.64-3.64V5.23A3.76,3.76,0,0,0,21.94,1.7Zm-5,9.1a1.07,1.07,0,1,0,0,2.14A1.15,1.15,0,0,0,18,11.87,1.07,1.07,0,0,0,16.91,10.8ZM9.3,9.2h7.6a1,1,0,1,0,0-1.93H9.3a1,1,0,1,0,0,1.93ZM12,14.44H9.09a1,1,0,0,0,0,1.93H12a1,1,0,1,0,0-1.93Z" transform="translate(-2.02 0.31)" style="fill: #89a194;"/>
  <!-- Text in app primary color -->
  <text transform="translate(29.24 22.42)" style="font-size: 26px; fill: #89a194; font-family: system-ui, -apple-system, sans-serif; font-weight: 600;">
    <tspan style="letter-spacing: -0.0249886em;">CV Builder</tspan>
  </text>
</svg>
