<svg xmlns="http://www.w3.org/2000/svg" viewBox="0 0 32 32">
  <title>CV Builder Favicon</title>
  <rect width="32" height="32" rx="4" fill="#89a194"/>
  <path d="M8,8h16a2,2,0,0,1,2,2v12a2,2,0,0,1-2,2H8a2,2,0,0,1-2-2V10A2,2,0,0,1,8,8Zm2,4h8a1,1,0,0,1,0,2H10a1,1,0,0,1,0-2Zm0,4h6a1,1,0,0,1,0,2H10a1,1,0,0,1,0-2Zm0,4h4a1,1,0,0,1,0,2H10a1,1,0,0,1,0-2Z" fill="white"/>
  <text x="16" y="26" text-anchor="middle" fill="white" font-family="system-ui, sans-serif" font-size="8" font-weight="bold">CV</text>
</svg>
